<svg width="24" height="24" viewBox="0 0 24 24" fill="none" xmlns="http://www.w3.org/2000/svg">
<path fill-rule="evenodd" clip-rule="evenodd" d="M11.7913 0.0103197C12.2742 -0.0483142 12.6133 0.14291 12.8087 0.583986C12.8181 1.0661 12.8442 1.54415 12.8869 2.01815C16 3.574 19.113 5.12987 22.2261 6.68571C22.2838 5.74896 22.7534 5.42735 23.6348 5.72091C23.8073 5.86578 23.9204 6.04831 23.9739 6.2685C24.0087 10.0929 24.0087 13.9174 23.9739 17.7418C23.9204 17.962 23.8073 18.1445 23.6348 18.2894C19.8783 20.1669 16.1217 22.0443 12.3652 23.9218C12.1217 24.0261 11.8783 24.0261 11.6348 23.9218C7.87826 22.0443 4.12174 20.1669 0.365218 18.2894C0.192674 18.1445 0.0796291 17.962 0.0260882 17.7418C-0.00869608 13.9174 -0.00869608 10.0929 0.0260882 6.2685C0.196149 5.70959 0.570064 5.49227 1.14783 5.6166C1.59047 5.83178 1.79917 6.18813 1.77391 6.68571C4.88697 5.12987 7.99998 3.574 11.113 2.01815C11.1558 1.54415 11.1819 1.0661 11.1913 0.583986C11.3184 0.30895 11.5185 0.117726 11.7913 0.0103197ZM12.8348 3.92168C15.6322 5.3111 18.4148 6.71048 21.1826 8.11987C20.1611 8.62601 19.1437 9.13886 18.1304 9.65834C16.3867 8.7738 14.6388 7.89588 12.8869 7.02469C12.8351 5.99434 12.8178 4.95996 12.8348 3.92168ZM11.0609 3.97383C11.1304 4.45931 11.1652 4.96346 11.1652 5.48622C11.1649 6.00294 11.1475 6.51575 11.113 7.02469C9.36114 7.89588 7.61332 8.7738 5.86956 9.65834C4.85624 9.13886 3.83884 8.62601 2.81739 8.11987C5.5765 6.74965 8.32434 5.36763 11.0609 3.97383ZM12 8.51101C13.398 9.20103 14.7893 9.90507 16.1739 10.6231C15.0783 11.1707 13.9826 11.7183 12.8869 12.2659C12.8573 11.2953 12.3877 10.9737 11.4783 11.3011C11.2107 11.5631 11.089 11.8847 11.113 12.2659C10.0174 11.7183 8.92173 11.1707 7.82608 10.6231C9.22867 9.93089 10.62 9.22684 12 8.51101ZM1.72174 9.50189C2.45894 9.86163 3.18937 10.2354 3.91304 10.6231C3.2 10.9795 2.48696 11.3359 1.77391 11.6923C1.72178 10.963 1.70439 10.2328 1.72174 9.50189ZM22.2261 9.50189C22.2953 10.2236 22.2953 10.9537 22.2261 11.6923C21.513 11.3359 20.8 10.9795 20.0869 10.6231C20.8032 10.2479 21.5162 9.87409 22.2261 9.50189ZM5.84348 11.5879C7.60528 12.4424 9.36182 13.3116 11.113 14.1955C11.1826 15.2212 11.1826 16.2468 11.113 17.2725C8.34782 15.8904 5.58261 14.5084 2.81739 13.1264C3.83741 12.6253 4.84612 12.1125 5.84348 11.5879ZM18.0522 11.5879C19.1229 12.0623 20.1664 12.5751 21.1826 13.1264C18.4174 14.5084 15.6522 15.8904 12.8869 17.2725C12.8174 16.2468 12.8174 15.2212 12.8869 14.1955C14.62 13.3381 16.3417 12.4689 18.0522 11.5879ZM1.72174 14.5084C5.04209 16.1679 8.36384 17.828 11.687 19.4889C11.8956 19.5237 12.1043 19.5237 12.313 19.4889C15.6301 17.8354 18.9432 16.1752 22.2522 14.5084C22.287 15.3429 22.287 16.1773 22.2522 17.0117C18.8629 18.7404 15.4543 20.4614 12.0261 22.1747C8.61276 20.4557 5.19537 18.7434 1.77391 17.0378C1.72219 16.1987 1.70479 15.3556 1.72174 14.5084Z" fill="white"/>
<path d="M1.72174 14.5084L11.687 19.4889C11.8956 19.5237 12.1043 19.5237 12.313 19.4889C15.6301 17.8354 18.9432 16.1752 22.2522 14.5084C22.287 15.3429 22.287 16.1773 22.2522 17.0117C18.8629 18.7404 15.4543 20.4614 12.0261 22.1747C8.61276 20.4557 5.19537 18.7434 1.77391 17.0378C1.72219 16.1987 1.70479 15.3556 1.72174 14.5084Z" fill="white"/>
</svg>
