{
	"asset":{
		"generator":"Khronos glTF Blender I/O v4.1.63",
		"version":"2.0"
	},
	"extensionsUsed":[
		"KHR_materials_specular",
		"KHR_materials_ior"
	],
	"scene":0,
	"scenes":[
		{
			"name":"studio_still",
			"nodes":[
				0
			]
		}
	],
	"nodes":[
		{
			"mesh":0,
			"name":"pear",
			"rotation":[
				0,
				-0.3867587149143219,
				0,
				0.9221809506416321
			],
			"scale":[
				0.23177529871463776,
				0.23177529871463776,
				0.23177529871463776
			],
			"translation":[
				-1,
				0.8996835947036743,
				0
			]
		}
	],
	"materials":[
		{
			"doubleSided":true,
			"extensions":{
				"KHR_materials_specular":{
					"specularColorFactor":[
						1.3181817531585693,
						1.3181817531585693,
						1.3181817531585693
					]
				},
				"KHR_materials_ior":{
					"ior":1.4500000476837158
				}
			},
			"name":"fabric",
			"pbrMetallicRoughness":{
				"baseColorFactor":[
					0,
					0,
					0,
					1
				],
				"metallicFactor":0,
				"roughnessFactor":0.6818180680274963
			}
		},
		{
			"doubleSided":true,
			"extensions":{
				"KHR_materials_specular":{
					"specularFactor":0.363636314868927
				},
				"KHR_materials_ior":{
					"ior":1.4500000476837158
				}
			},
			"name":"sewing",
			"pbrMetallicRoughness":{
				"baseColorFactor":[
					0.609893262386322,
					0.609893262386322,
					0.609893262386322,
					1
				],
				"metallicFactor":0,
				"roughnessFactor":0.9318181872367859
			}
		},
		{
			"doubleSided":true,
			"extensions":{
				"KHR_materials_specular":{
					"specularColorFactor":[
						1.2636363506317139,
						1.2636363506317139,
						1.2636363506317139
					]
				},
				"KHR_materials_ior":{
					"ior":1.4500000476837158
				}
			},
			"name":"metal",
			"pbrMetallicRoughness":{
				"baseColorFactor":[
					0.800000011920929,
					0.800000011920929,
					0.800000011920929,
					1
				],
				"roughnessFactor":0.25909093022346497
			}
		}
	],
	"meshes":[
		{
			"name":"Sphere.001",
			"primitives":[
				{
					"attributes":{
						"POSITION":0,
						"NORMAL":1,
						"TEXCOORD_0":2
					},
					"indices":3,
					"material":0
				},
				{
					"attributes":{
						"POSITION":4,
						"NORMAL":5,
						"TEXCOORD_0":6
					},
					"indices":7,
					"material":1
				},
				{
					"attributes":{
						"POSITION":8,
						"NORMAL":9,
						"TEXCOORD_0":10
					},
					"indices":11,
					"material":2
				}
			]
		}
	],
	"accessors":[
		{
			"bufferView":0,
			"componentType":5126,
			"count":4985,
			"max":[
				1.0000005960464478,
				2.838757276535034,
				1.000001072883606
			],
			"min":[
				-1.000000238418579,
				-0.09231206774711609,
				-1
			],
			"type":"VEC3"
		},
		{
			"bufferView":1,
			"componentType":5126,
			"count":4985,
			"type":"VEC3"
		},
		{
			"bufferView":2,
			"componentType":5126,
			"count":4985,
			"type":"VEC2"
		},
		{
			"bufferView":3,
			"componentType":5123,
			"count":29196,
			"type":"SCALAR"
		},
		{
			"bufferView":4,
			"componentType":5126,
			"count":11960,
			"max":[
				0.12303248047828674,
				2.7536206245422363,
				0.576647162437439
			],
			"min":[
				-0.01732662320137024,
				2.0418195724487305,
				0.18703944981098175
			],
			"type":"VEC3"
		},
		{
			"bufferView":5,
			"componentType":5126,
			"count":11960,
			"type":"VEC3"
		},
		{
			"bufferView":6,
			"componentType":5126,
			"count":11960,
			"type":"VEC2"
		},
		{
			"bufferView":7,
			"componentType":5123,
			"count":59592,
			"type":"SCALAR"
		},
		{
			"bufferView":8,
			"componentType":5126,
			"count":32413,
			"max":[
				0.23750698566436768,
				3.493616819381714,
				0.18764397501945496
			],
			"min":[
				-0.22263872623443604,
				2.6076574325561523,
				-0.23775652050971985
			],
			"type":"VEC3"
		},
		{
			"bufferView":9,
			"componentType":5126,
			"count":32413,
			"type":"VEC3"
		},
		{
			"bufferView":10,
			"componentType":5126,
			"count":32413,
			"type":"VEC2"
		},
		{
			"bufferView":11,
			"componentType":5123,
			"count":170442,
			"type":"SCALAR"
		}
	],
	"bufferViews":[
		{
			"buffer":0,
			"byteLength":59820,
			"byteOffset":0,
			"target":34962
		},
		{
			"buffer":0,
			"byteLength":59820,
			"byteOffset":59820,
			"target":34962
		},
		{
			"buffer":0,
			"byteLength":39880,
			"byteOffset":119640,
			"target":34962
		},
		{
			"buffer":0,
			"byteLength":58392,
			"byteOffset":159520,
			"target":34963
		},
		{
			"buffer":0,
			"byteLength":143520,
			"byteOffset":217912,
			"target":34962
		},
		{
			"buffer":0,
			"byteLength":143520,
			"byteOffset":361432,
			"target":34962
		},
		{
			"buffer":0,
			"byteLength":95680,
			"byteOffset":504952,
			"target":34962
		},
		{
			"buffer":0,
			"byteLength":119184,
			"byteOffset":600632,
			"target":34963
		},
		{
			"buffer":0,
			"byteLength":388956,
			"byteOffset":719816,
			"target":34962
		},
		{
			"buffer":0,
			"byteLength":388956,
			"byteOffset":1108772,
			"target":34962
		},
		{
			"buffer":0,
			"byteLength":259304,
			"byteOffset":1497728,
			"target":34962
		},
		{
			"buffer":0,
			"byteLength":340884,
			"byteOffset":1757032,
			"target":34963
		}
	],
	"buffers":[
		{
			"byteLength":2097916,
			"uri":"punching-bags.bin"
		}
	]
}