<svg xmlns="http://www.w3.org/2000/svg" viewBox="0 0 48 48" width="48" height="48" color="#F6F4F6" fill="currentColor"><path d="M24 1 L44 12.5 L44 35.5 L24 47 L4 35.5 L4 12.5ZM6.8 14.12 L6.8 33.88 L24 43.77 L41.2 33.88 L41.2 14.12 L24 4.23ZM20.9 9.8 L27.1 9.8 L28.7 13.4 L27.1 17 L20.9 17 L19.3 13.4ZM20.2 19 L27.8 19 L29.4 22.6 L27.6 30.4 L20.4 30.4 L18.6 22.6ZM18.6 18 L14.8 23.4 L11.9 22.6 L16.2 14.4ZM14.8 23.4 L15.4 27.6 L11.4 27 L11.9 22.6ZM31.80 14.4 L36.10 22.6 L33.20 23.4 L29.40 18ZM36.10 22.6 L36.60 27 L32.60 27.6 L33.20 23.4ZM23.4 28.8 L21.4 38.2 L17.6 38.2 L19.6 28.8ZM28.40 28.8 L30.40 38.2 L26.60 38.2 L24.60 28.8Z"></path></svg>
