<svg xmlns="http://www.w3.org/2000/svg" width="1440" height="900" viewBox="0 0 1440 900"><style>@keyframes hxFlick{0%,38%{opacity:1}40%{opacity:.22}42%{opacity:1}60%{opacity:1}61%{opacity:.12}63%{opacity:.8}64%{opacity:.28}66%{opacity:1}100%{opacity:1}}@media (prefers-reduced-motion: reduce){[data-hx-flick]{animation:none !important;opacity:1 !important}}</style><defs><radialGradient id="aplate"><stop offset="0" stop-color="#191420" stop-opacity=".95"/><stop offset="1" stop-color="#0d0b11" stop-opacity=".55"/></radialGradient>
<radialGradient id="aglow"><stop offset="0" stop-color="#FFA526" stop-opacity="0.14"/><stop offset=".45" stop-color="#FFA526" stop-opacity="0.056"/><stop offset="1" stop-color="#FFA526" stop-opacity="0"/></radialGradient>
<radialGradient id="azone"><stop offset="0" stop-color="#FFA526" stop-opacity=".55"/><stop offset="1" stop-color="#FFA526" stop-opacity=".04"/></radialGradient>
<radialGradient id="agem" cx=".45" cy=".4"><stop offset="0" stop-color="#FFA526"/><stop offset="1" stop-color="#FFA526" stop-opacity=".55"/></radialGradient>
<radialGradient id="agg"><stop offset="0" stop-color="#FFA526" stop-opacity=".5"/><stop offset="1" stop-color="#FFA526" stop-opacity="0"/></radialGradient></defs><rect width="1440" height="900" fill="#08080a"/>
<g opacity=".5"><polygon fill="none" stroke="#FFA526" stroke-opacity="0.0347" stroke-width="1" points="1815.8,-1265.0 2623.2,466.5 1527.4,2031.5 -375.8,1865.0 -1183.2,133.5 -87.4,-1431.5"/>
<polygon fill="none" stroke="#FFA526" stroke-opacity="0.0456" stroke-width="1" points="1432.9,-934.7 2145.7,300.0 1432.9,1534.7 7.1,1534.7 -705.7,300.0 7.1,-934.7"/>
<polygon fill="none" stroke="#FFA526" stroke-opacity="0.0601" stroke-width="1" points="1169.7,-664.3 1779.9,207.3 1330.3,1171.6 270.3,1264.3 -339.9,392.7 109.7,-571.6"/>
<polygon fill="none" stroke="#FFA526" stroke-opacity="0.0790" stroke-width="1" points="991.6,-446.1 1502.0,162.1 1230.4,908.3 448.4,1046.1 -62.0,437.9 209.6,-308.3"/>
<polygon fill="none" stroke="#FFA526" stroke-opacity="0.1040" stroke-width="1" points="873.4,-272.4 1292.4,146.6 1139.0,719.0 566.6,872.4 147.6,453.4 301.0,-119.0"/>
<polygon fill="none" stroke="#FFA526" stroke-opacity="0.1368" stroke-width="1" points="796.8,-135.5 1135.5,148.8 1058.7,584.2 643.2,735.5 304.5,451.2 381.3,15.8"/>
<polygon fill="none" stroke="#FFA526" stroke-opacity="0.1800" stroke-width="1" points="748.8,-28.7 1019.1,160.5 990.3,489.3 691.2,628.7 420.9,439.5 449.7,110.7"/>
<circle cx="720" cy="300" r="194.7" fill="url(#aglow)"/>
<polygon points="720.0,135.0 862.9,217.5 862.9,382.5 720.0,465.0 577.1,382.5 577.1,217.5" fill="url(#aplate)"/>
<polygon opacity="0.12" points="720.0,300.0 720.0,135.0 862.9,217.5 862.9,382.5" fill="url(#azone)"/>
<polygon opacity="0.12" points="720.0,300.0 862.9,382.5 720.0,465.0 577.1,382.5" fill="url(#azone)"/>
<polygon opacity="0.12" points="720.0,300.0 577.1,382.5 577.1,217.5 720.0,135.0" fill="url(#azone)"/>
<polygon points="739.0,293.4 734.0,214.2 729.6,155.6 710.4,155.6 706.0,214.2 701.0,293.4" fill="#120f17" stroke="#FFA526" stroke-opacity="0.26" stroke-width="1.3" stroke-linejoin="round"/>
<polygon points="716.2,319.7 787.3,355.0 840.2,380.5 849.8,363.9 801.3,330.8 735.2,286.9" fill="#120f17" stroke="#FFA526" stroke-opacity="0.26" stroke-width="1.3" stroke-linejoin="round"/>
<polygon points="704.8,286.9 638.7,330.8 590.2,363.9 599.8,380.5 652.7,355.0 723.8,319.7" fill="#120f17" stroke="#FFA526" stroke-opacity="0.26" stroke-width="1.3" stroke-linejoin="round"/>
<g data-hx-flick="1" style="animation:hxFlick 4.2s linear 0s infinite"><line x1="720.0" y1="135.0" x2="862.9" y2="217.5" stroke="#FFA526" stroke-opacity="0.099" stroke-width="13" stroke-linecap="round"/><line x1="720.0" y1="135.0" x2="862.9" y2="217.5" stroke="#FFA526" stroke-opacity="0.55" stroke-width="4.0" stroke-linecap="square"/></g>
<g data-hx-flick="1" style="animation:hxFlick 5.1s linear 1.3s infinite"><line x1="862.9" y1="217.5" x2="862.9" y2="382.5" stroke="#FFA526" stroke-opacity="0.099" stroke-width="13" stroke-linecap="round"/><line x1="862.9" y1="217.5" x2="862.9" y2="382.5" stroke="#FFA526" stroke-opacity="0.55" stroke-width="4.0" stroke-linecap="square"/></g>
<g data-hx-flick="1" style="animation:hxFlick 3.7s linear 2.1s infinite"><line x1="862.9" y1="382.5" x2="720.0" y2="465.0" stroke="#FFA526" stroke-opacity="0.099" stroke-width="13" stroke-linecap="round"/><line x1="862.9" y1="382.5" x2="720.0" y2="465.0" stroke="#FFA526" stroke-opacity="0.55" stroke-width="4.0" stroke-linecap="square"/></g>
<g data-hx-flick="1" style="animation:hxFlick 6.3s linear 0.6s infinite"><line x1="720.0" y1="465.0" x2="577.1" y2="382.5" stroke="#FFA526" stroke-opacity="0.099" stroke-width="13" stroke-linecap="round"/><line x1="720.0" y1="465.0" x2="577.1" y2="382.5" stroke="#FFA526" stroke-opacity="0.55" stroke-width="4.0" stroke-linecap="square"/></g>
<g data-hx-flick="1" style="animation:hxFlick 4.8s linear 3.4s infinite"><line x1="577.1" y1="382.5" x2="577.1" y2="217.5" stroke="#FFA526" stroke-opacity="0.099" stroke-width="13" stroke-linecap="round"/><line x1="577.1" y1="382.5" x2="577.1" y2="217.5" stroke="#FFA526" stroke-opacity="0.55" stroke-width="4.0" stroke-linecap="square"/></g>
<g data-hx-flick="1" style="animation:hxFlick 5.6s linear 1.9s infinite"><line x1="577.1" y1="217.5" x2="720.0" y2="135.0" stroke="#FFA526" stroke-opacity="0.099" stroke-width="13" stroke-linecap="round"/><line x1="577.1" y1="217.5" x2="720.0" y2="135.0" stroke="#FFA526" stroke-opacity="0.55" stroke-width="4.0" stroke-linecap="square"/></g>
<polygon points="720.0,146.5 852.9,223.3 852.9,376.7 720.0,453.5 587.1,376.7 587.1,223.3" fill="none" stroke="#FFA526" stroke-opacity="0.193" stroke-width="1.2"/>
<circle cx="720" cy="300" r="76.8" fill="url(#agg)"/>
<polygon points="720.0,259.6 755.0,279.8 755.0,320.2 720.0,340.4 685.0,320.2 685.0,279.8" fill="#0b0910" stroke="#FFA526" stroke-opacity="0.8" stroke-width="4.60" stroke-linejoin="round"/>
<polygon points="720.0,266.0 749.4,283.0 749.4,317.0 720.0,334.0 690.6,317.0 690.6,283.0" fill="none" stroke="#FFA526" stroke-opacity="0.280" stroke-width="1"/>
<polygon points="720.0,279.0 738.2,289.5 738.2,310.5 720.0,321.0 701.8,310.5 701.8,289.5" fill="url(#agem)"/></g>
</svg>